<mxfile host="vPv">
  <diagram id="pAo" name="Style-Plain">
    <mxGraphModel dx="0" dy="0" background="#FFEADB" grid="0" gridSize="10" guides="1" tooltips="1" connect="1" arrows="1" fold="1" page="1" pageScale="1" pageWidth="1169" pageHeight="827" math="0" shadow="0">
      <root>
        <mxCell id="page_root_pAo" parent="pAo"/>
        <mxCell id="node_root_pAo" parent="page_root_pAo"/>
        <mxCell id="pAo-2" value="                &lt;p style=&quot;margin:0px;margin-top:4px;text-align:center&quot;&gt;          &lt;i&gt;&amp;lt;&amp;lt;Interface&amp;gt;&amp;gt;&lt;/i&gt;        &lt;/p&gt;        &lt;p style=&quot;margin:0px;margin-top:4px;text-align:center;&quot;&gt;          &lt;b&gt;IPerson&lt;/b&gt;        &lt;/p&gt;        &lt;hr size=&quot;1&quot;/&gt;        &lt;p style=&quot;margin:0px;margin-left:4px;&quot;&gt;          first_name: string          &lt;br/&gt;          last_name: string          &lt;br/&gt;          age: Integer        &lt;/p&gt;        &lt;hr size=&quot;1&quot;/&gt;        &lt;p style=&quot;margin:0px;margin-left:4px;&quot;&gt;          full_name(): string        &lt;/p&gt;" style="whiteSpace=wrap;html=1;rounded=0;fillColor=#0050ef;strokeColor=#001DBC;fontColor=#ffffff;align=left;overflow=fill;fontSize=12;fontFamily=Helvetica" vertex="1" parent="node_root_pAo">
          <mxGeometry x="30" y="30" width="160" height="160" as="geometry"/>
        </mxCell>
        <mxCell id="pAo-3" value="                &lt;p style=&quot;margin:0px;margin-top:4px;text-align:center;&quot;&gt;          &lt;b&gt;Person&lt;/b&gt;        &lt;/p&gt;        &lt;hr size=&quot;1&quot;/&gt;        &lt;p style=&quot;margin:0px;margin-left:4px;&quot;&gt;          first_name: string          &lt;br/&gt;          last_name: string          &lt;br/&gt;          age: Integer        &lt;/p&gt;        &lt;hr size=&quot;1&quot;/&gt;        &lt;p style=&quot;margin:0px;margin-left:4px;&quot;&gt;          full_name(): string        &lt;/p&gt;" style="whiteSpace=wrap;html=1;rounded=0;fillColor=#0050ef;strokeColor=#001DBC;fontColor=#ffffff;align=left;overflow=fill;fontSize=12;fontFamily=Helvetica" vertex="1" parent="node_root_pAo">
          <mxGeometry x="250" y="30" width="160" height="160" as="geometry"/>
        </mxCell>
      </root>
    </mxGraphModel>
  </diagram>
</mxfile>